<svg xmlns="http://www.w3.org/2000/svg" xmlns:xlink="http://www.w3.org/1999/xlink" width="500" zoomAndPan="magnify" viewBox="0 0 375 374.999991" height="500" preserveAspectRatio="xMidYMid meet" version="1.0"><defs><g/></defs><rect x="-37.5" width="450" fill="#ffffff" y="-37.499999" height="449.999989" fill-opacity="1"/><rect x="-37.5" width="450" fill="#ff5757" y="-37.499999" height="449.999989" fill-opacity="1"/><g fill="#ffffff" fill-opacity="1"><g transform="translate(15.882654, 298.062455)"><g><path d="M 163.546875 0 L 133.125 -57.71875 L 163.546875 -57.71875 L 163.546875 -206.984375 L 8.0625 -206.984375 L 8.0625 0 L 59.890625 0 L 59.890625 -57.71875 L 82.234375 -57.71875 L 111.71875 0 Z M 111.71875 -104.890625 L 59.890625 -104.890625 L 59.890625 -159.515625 L 111.71875 -159.515625 Z M 111.71875 -104.890625 "/></g></g></g><g fill="#ffffff" fill-opacity="1"><g transform="translate(187.489597, 298.062455)"><g><path d="M 163.546875 0 L 163.546875 -206.984375 L 111.71875 -206.984375 L 111.71875 -126.921875 L 59.890625 -126.921875 L 59.890625 -206.984375 L 8.0625 -206.984375 L 8.0625 0 L 59.890625 0 L 59.890625 -81.3125 L 111.71875 -81.3125 L 111.71875 0 Z M 163.546875 0 "/></g></g></g></svg>